<?xml version="1.0" standalone="no"?>
<!DOCTYPE svg PUBLIC "-//W3C//DTD SVG 20010904//EN"
 "http://www.w3.org/TR/2001/REC-SVG-20010904/DTD/svg10.dtd">
<svg version="1.0" xmlns="http://www.w3.org/2000/svg"
 width="1024.000000pt" height="1024.000000pt" viewBox="0 0 1024.000000 1024.000000"
 preserveAspectRatio="xMidYMid meet">
<metadata>
Created by potrace 1.14, written by Peter Selinger 2001-2017
</metadata>
<g transform="translate(0.000000,1024.000000) scale(0.100000,-0.100000)"
fill="#000000" stroke="none">
<path d="M5182 9131 c-71 -25 -148 -64 -162 -81 -6 -8 -67 -36 -95 -44 -19 -5
-98 -11 -475 -36 -80 -6 -172 -12 -205 -15 -33 -3 -91 -7 -130 -10 -38 -3 -81
-7 -95 -10 -14 -2 -41 -7 -60 -9 -53 -7 -181 -35 -193 -43 -5 -3 -26 -7 -45
-9 -55 -5 -246 -56 -254 -68 -4 -6 -8 -8 -8 -4 0 4 -24 -2 -52 -13 -29 -12
-57 -22 -63 -23 -30 -6 -62 -20 -77 -34 -10 -8 -26 -15 -35 -16 -18 -1 -313
-143 -323 -155 -3 -3 -12 -7 -20 -9 -8 -2 -22 -9 -30 -16 -8 -7 -30 -18 -47
-26 -18 -7 -33 -16 -33 -21 0 -4 -9 -11 -20 -14 -43 -14 -292 -176 -357 -232
-17 -16 -70 -61 -117 -102 -75 -64 -266 -252 -338 -333 -152 -169 -342 -436
-442 -620 -26 -49 -52 -88 -57 -88 -5 0 -9 -10 -9 -21 0 -12 -13 -43 -29 -68
-15 -26 -34 -64 -42 -86 -7 -22 -19 -47 -26 -56 -7 -8 -13 -22 -13 -30 0 -8
-12 -39 -26 -69 -24 -51 -100 -269 -108 -308 -1 -9 -6 -24 -9 -32 -18 -43 -51
-201 -63 -295 -1 -11 -3 -20 -4 -20 -3 0 -10 -42 -15 -95 -4 -30 -9 -64 -14
-75 -19 -50 -67 -141 -87 -165 -12 -14 -32 -46 -44 -70 -12 -25 -29 -58 -38
-75 -13 -23 -17 -56 -17 -140 0 -101 2 -114 28 -163 56 -106 182 -200 275
-206 12 0 22 -4 22 -8 0 -14 107 -8 143 7 97 40 198 125 237 199 23 43 25 57
25 179 0 150 -4 162 -103 281 -45 55 -49 62 -40 90 14 45 25 95 32 141 3 22 8
51 12 65 3 14 10 43 14 65 5 22 14 55 19 73 5 17 7 32 4 32 -3 0 -1 6 5 13 6
6 13 30 17 52 4 22 13 49 20 61 8 12 16 36 18 55 3 19 6 34 7 34 1 0 3 7 5 15
1 8 14 40 28 70 13 30 28 69 31 85 11 43 179 377 213 421 15 21 26 38 24 38
-2 1 18 34 45 75 27 41 54 83 60 93 6 10 22 30 34 43 13 14 20 25 16 25 -4 0
0 7 8 16 9 9 29 32 44 52 117 158 333 370 527 520 150 116 423 293 460 298 6
1 27 13 48 27 21 14 51 28 67 32 17 4 30 11 30 17 0 6 3 9 6 5 4 -3 25 3 48
15 22 12 91 39 151 60 94 33 130 45 200 62 6 2 17 5 25 8 60 20 247 60 291 63
30 1 54 4 54 5 0 1 14 4 30 5 17 2 66 8 110 14 99 13 206 20 495 31 250 9 226
14 330 -65 30 -22 75 -49 99 -58 48 -20 247 -35 278 -22 10 5 22 7 27 6 40 -9
138 64 178 134 65 111 63 104 63 220 0 102 -2 114 -29 168 -48 93 -150 175
-241 191 -14 3 -29 7 -34 10 -29 18 -104 13 -179 -13z"/>
<path d="M6293 9103 c-28 -42 -31 -183 -32 -1194 l-1 -936 -40 -79 c-22 -44
-44 -84 -50 -91 -5 -7 -10 -16 -10 -21 0 -5 -23 -43 -51 -85 -42 -63 -123
-153 -199 -220 -33 -30 -130 -97 -139 -97 -5 0 -16 -7 -24 -15 -17 -17 -107
-58 -187 -85 -100 -35 -270 -50 -680 -60 -371 -10 -400 -12 -483 -35 -108 -31
-155 -54 -232 -115 -116 -93 -222 -235 -248 -335 -3 -11 -13 -40 -23 -65 -13
-33 -17 -77 -18 -170 -1 -117 1 -131 33 -219 18 -52 49 -119 69 -150 43 -69
194 -219 248 -246 21 -11 41 -22 44 -25 9 -10 123 -38 200 -49 41 -6 192 -16
335 -21 610 -23 704 -32 800 -74 17 -8 40 -17 52 -20 11 -4 27 -13 33 -21 7
-8 18 -15 26 -15 42 0 285 -212 356 -310 42 -59 109 -182 125 -230 52 -163 61
-272 68 -831 6 -543 35 -826 101 -999 31 -78 130 -283 159 -325 11 -16 25 -38
30 -47 73 -124 300 -374 416 -457 19 -14 38 -30 42 -38 4 -7 13 -13 20 -13 7
0 24 -11 39 -24 14 -14 41 -33 59 -43 19 -10 53 -31 76 -46 24 -15 45 -27 48
-27 3 0 22 -11 43 -24 20 -12 39 -23 42 -23 14 0 57 -17 70 -28 21 -17 127
-49 245 -75 79 -17 133 -21 260 -21 284 0 368 35 530 221 29 33 88 127 113
180 43 91 51 238 32 563 l-11 169 53 61 c29 34 60 68 68 77 9 9 29 34 45 55
17 22 33 42 36 45 4 3 21 33 38 66 41 81 42 146 4 214 l-27 48 33 28 c85 71
131 134 131 177 0 34 -42 128 -87 194 -38 57 -68 137 -68 183 0 39 5 52 35 82
33 35 191 138 211 138 5 0 9 5 9 10 0 6 4 10 9 10 15 0 77 41 139 91 32 26 72
73 92 105 31 51 34 65 34 129 0 62 -4 81 -40 156 -23 46 -47 91 -55 99 -8 8
-26 33 -40 55 -23 34 -107 136 -279 335 -54 63 -121 142 -145 171 -44 53 -145
189 -145 195 0 3 -10 20 -22 37 -93 129 -157 291 -169 427 -19 207 -21 333 -9
599 13 304 7 455 -31 716 -22 153 -70 361 -98 428 -10 23 -20 58 -23 77 -3 19
-19 64 -36 100 -16 36 -33 76 -37 90 -13 41 -105 230 -143 295 -51 86 -90 148
-100 161 -5 5 -15 21 -22 35 -7 13 -16 26 -20 29 -3 3 -19 23 -33 45 -29 43
-33 48 -156 195 -119 143 -293 306 -460 434 -97 74 -288 206 -297 206 -3 0
-46 24 -97 54 -51 29 -105 60 -122 68 -16 8 -43 22 -60 32 -61 33 -251 119
-295 132 -66 20 -87 18 -107 -13z m-1620 -3393 c54 -26 106 -74 123 -116 16
-39 18 -131 4 -169 -12 -33 -79 -105 -97 -105 -7 0 -13 -3 -13 -8 0 -15 -66
-37 -111 -37 -37 0 -57 8 -105 39 -75 50 -97 78 -109 141 -16 82 1 150 49 196
80 77 174 99 259 59z m2417 -290 c118 -17 238 -35 265 -40 28 -5 104 -17 170
-26 66 -9 135 -22 153 -28 l33 -12 -24 -23 c-22 -19 -28 -21 -45 -10 -31 20
-131 -10 -244 -71 -26 -15 -126 -47 -187 -61 -105 -23 -237 -10 -312 33 -13 7
-45 30 -70 51 -26 20 -50 37 -53 37 -4 0 -18 10 -31 23 -13 12 -41 36 -61 52
-20 17 -66 57 -102 91 l-65 60 179 -22 c99 -12 276 -36 394 -54z"/>
<path d="M5210 7811 c-52 -16 -136 -61 -167 -90 -18 -16 -33 -27 -33 -24 0 3
-8 -1 -17 -10 -30 -27 -100 -36 -323 -41 -118 -3 -237 -10 -265 -16 -27 -5
-75 -12 -105 -14 -30 -2 -55 -5 -55 -6 0 -1 -11 -3 -25 -5 -57 -7 -91 -15
-178 -40 -50 -14 -104 -28 -119 -31 -15 -3 -32 -9 -38 -15 -5 -5 -14 -9 -21
-9 -6 0 -29 -8 -50 -17 -22 -9 -41 -17 -44 -18 -3 0 -12 -5 -20 -10 -8 -5 -21
-10 -28 -11 -21 -4 -161 -74 -168 -85 -3 -5 -13 -9 -23 -9 -10 0 -26 -9 -36
-20 -10 -11 -27 -22 -39 -26 -22 -7 -36 -17 -121 -84 -27 -22 -55 -40 -62 -40
-7 0 -13 -4 -13 -8 0 -5 -39 -42 -87 -83 -87 -75 -236 -234 -279 -299 -13 -19
-44 -64 -70 -100 -56 -77 -147 -230 -147 -247 0 -7 -4 -13 -9 -13 -4 0 -8 -5
-8 -11 0 -5 -13 -38 -29 -72 -35 -76 -44 -98 -47 -117 -1 -8 -11 -37 -23 -64
-19 -44 -40 -115 -45 -156 -2 -8 -5 -24 -9 -35 -3 -11 -16 -74 -28 -140 -31
-175 -31 -487 0 -669 12 -71 24 -133 26 -136 4 -7 10 -30 26 -110 6 -30 18
-68 27 -85 9 -16 18 -41 20 -55 2 -13 7 -30 13 -36 5 -6 6 -14 2 -17 -3 -4 -1
-7 5 -7 7 0 12 -8 12 -17 0 -20 101 -222 153 -308 135 -219 369 -475 570 -621
69 -50 167 -114 191 -126 14 -6 26 -15 26 -19 0 -6 42 -25 63 -27 4 -1 19 -10
34 -22 14 -11 31 -20 37 -20 7 0 37 -12 67 -26 55 -27 211 -84 239 -87 8 -1
17 -5 20 -9 3 -4 23 -9 45 -12 22 -3 60 -10 85 -16 150 -35 259 -47 530 -55
107 -3 213 -8 235 -11 44 -7 106 -36 146 -68 24 -19 87 -58 99 -61 3 -1 21 -8
41 -17 51 -22 170 -16 231 11 90 41 164 119 225 236 38 73 38 177 0 260 -16
33 -40 77 -54 98 -29 42 -140 120 -159 113 -8 -3 -16 -1 -18 3 -9 14 -257 6
-291 -9 -16 -8 -75 -43 -130 -78 l-99 -65 -151 7 c-184 8 -365 23 -425 36 -25
5 -63 11 -85 14 -22 3 -71 15 -110 26 -38 12 -78 23 -89 25 -10 2 -23 8 -30
13 -6 5 -38 19 -71 31 -71 26 -236 112 -282 147 -17 13 -36 24 -40 24 -5 0
-18 8 -29 18 -10 9 -51 42 -89 74 -76 61 -210 197 -265 268 -19 24 -43 53 -52
64 -10 11 -18 26 -18 33 0 7 -3 13 -8 13 -4 0 -12 9 -17 19 -6 11 -27 50 -48
86 -20 36 -43 84 -50 106 -6 21 -15 39 -19 39 -5 0 -8 8 -8 18 0 10 -4 22 -9
28 -16 16 -68 194 -97 329 -25 117 -27 150 -27 320 0 173 3 203 31 335 31 147
70 267 117 359 14 28 25 57 25 66 0 9 7 18 15 21 8 4 15 13 15 20 0 39 170
264 287 382 92 92 260 232 279 232 3 0 24 13 47 29 80 54 281 149 337 158 13
2 27 8 30 13 5 8 57 24 136 40 27 6 60 13 74 16 14 4 31 7 38 7 6 0 12 3 12 6
0 7 10 7 306 17 252 7 282 3 403 -66 39 -22 75 -40 81 -40 6 0 18 -4 28 -9 9
-5 44 -14 78 -20 212 -39 354 32 436 216 25 56 28 185 6 248 -40 115 -160 227
-268 250 -3 1 -23 7 -45 13 -45 13 -97 14 -135 3z"/>
<path d="M1152 4678 c-7 -7 -12 -19 -12 -29 0 -27 -44 -66 -83 -73 -33 -6 -41
-3 -70 24 -35 33 -65 34 -102 1 -11 -10 -27 -24 -36 -32 -15 -13 -15 -18 2
-60 18 -46 18 -47 -4 -90 -20 -41 -25 -44 -67 -47 -55 -4 -65 -14 -78 -73 -11
-58 -2 -76 44 -85 29 -5 39 -14 51 -43 22 -51 19 -76 -11 -111 -35 -42 -33
-60 12 -110 l37 -42 45 20 c46 19 46 19 85 0 22 -12 41 -22 43 -23 6 -5 10
-38 11 -77 1 -34 4 -38 34 -43 90 -17 98 -14 126 40 22 41 33 51 66 61 37 10
42 9 83 -23 43 -33 44 -33 73 -16 16 9 40 27 53 40 l25 23 -18 41 c-20 44 -20
49 -4 89 16 37 35 50 84 55 52 5 56 9 66 60 14 66 7 82 -44 101 -70 27 -86 98
-34 155 l30 32 -19 36 c-41 77 -54 83 -115 54 -35 -17 -37 -17 -81 6 -24 13
-45 31 -46 40 0 9 -2 25 -3 36 -1 11 -3 28 -4 37 -2 30 -114 51 -139 26z m107
-291 c121 -80 111 -259 -17 -318 -131 -61 -266 25 -265 169 1 141 165 226 282
149z"/>
<path d="M1262 3738 c-5 -7 -17 -28 -27 -47 -32 -63 -48 -73 -123 -79 -63 -4
-69 -2 -84 19 -25 39 -70 79 -87 79 -25 0 -113 -49 -138 -76 l-22 -24 20 -67
c21 -74 19 -79 -39 -145 -24 -27 -31 -29 -92 -27 -36 1 -71 1 -77 0 -32 -3
-77 -157 -56 -188 5 -6 33 -24 63 -40 60 -31 67 -45 69 -130 1 -50 0 -52 -49
-93 -28 -24 -50 -50 -50 -61 0 -25 53 -131 75 -149 14 -11 27 -11 84 4 l69 18
38 -25 c68 -43 75 -56 72 -135 -2 -61 1 -74 17 -86 22 -16 69 -31 127 -41 37
-7 38 -7 78 58 44 70 48 72 128 76 52 3 54 2 99 -48 28 -30 55 -51 67 -51 25
0 113 44 140 71 18 17 18 22 7 66 -22 81 -18 105 25 161 l39 51 66 -6 c80 -7
99 7 123 88 27 91 22 104 -68 149 -40 20 -54 46 -59 108 -3 51 -2 55 31 85 86
79 86 80 39 163 -43 77 -64 87 -131 65 -28 -10 -59 -17 -69 -15 -26 4 -107 73
-108 92 -1 9 -2 46 -3 82 l-1 65 -65 22 c-75 25 -113 28 -128 11z m32 -396
c52 -24 75 -43 110 -94 87 -129 58 -292 -68 -372 -79 -51 -124 -59 -222 -42
-104 18 -203 149 -199 263 7 197 202 323 379 245z"/>
<path d="M2748 3685 c-2 -2 -30 -5 -62 -8 -92 -8 -100 -22 -121 -197 -3 -30
-12 -62 -19 -72 -11 -16 -150 -89 -191 -102 -13 -4 -41 5 -75 24 -30 17 -79
42 -108 56 l-52 26 -35 -22 c-19 -12 -42 -32 -52 -44 -10 -13 -42 -51 -70 -85
-37 -43 -53 -71 -53 -91 0 -25 33 -79 100 -160 34 -42 34 -65 1 -170 -36 -114
-36 -114 -169 -150 -122 -33 -126 -38 -118 -183 4 -66 13 -134 20 -152 15 -35
28 -40 121 -50 28 -3 71 -10 97 -16 46 -11 47 -12 88 -96 23 -47 43 -97 45
-112 2 -16 -10 -50 -33 -90 -21 -35 -43 -73 -49 -85 -18 -30 -15 -77 5 -101
38 -46 173 -155 198 -161 28 -7 76 12 111 46 46 42 108 80 132 79 14 0 67 -15
116 -33 102 -37 102 -37 136 -165 32 -117 38 -123 152 -120 219 5 217 4 242
203 3 27 10 57 16 67 15 28 189 111 220 105 14 -2 60 -25 102 -50 116 -69 129
-66 221 41 98 113 110 137 89 177 -9 17 -36 56 -61 86 -73 90 -74 97 -16 251
28 75 28 75 159 109 113 30 119 38 118 156 -2 176 -15 207 -95 223 -29 5 -73
12 -98 14 -81 8 -92 17 -144 121 -55 111 -55 113 6 220 22 39 42 87 45 107 5
34 2 39 -75 109 -96 87 -129 110 -159 110 -19 0 -129 -75 -171 -117 -7 -7 -28
-13 -46 -13 -36 0 -167 42 -201 64 -20 13 -50 96 -70 193 -9 46 -38 61 -123
60 -39 0 -73 -1 -74 -2z m172 -670 c136 -24 260 -119 325 -250 150 -301 -86
-667 -420 -654 -115 5 -219 48 -302 125 -114 108 -164 266 -133 421 11 54 36
121 50 133 3 3 17 24 32 46 42 65 139 136 223 164 72 24 147 29 225 15z"/>
</g>
</svg>
